<?xml version="1.0" standalone="no"?><!DOCTYPE svg PUBLIC "-//W3C//DTD SVG 1.1//EN" "http://www.w3.org/Graphics/SVG/1.1/DTD/svg11.dtd"><svg t="1523175401273" class="icon" style="" viewBox="0 0 1024 1024" version="1.1" xmlns="http://www.w3.org/2000/svg" p-id="2020" xmlns:xlink="http://www.w3.org/1999/xlink" width="200" height="200"><defs><style type="text/css"></style></defs><path d="M512.414 62.99c-247.824 0-449.424 201.6-449.424 449.424 0 247.842 201.592 449.424 449.424 449.424 247.842 0 449.424-201.582 449.424-449.424 0-247.824-201.582-449.424-449.424-449.424zM672.236 576.62h-191.574c-17.81-0.036-32.239-14.464-32.274-32.271v-255.441c0-0.016 0-0.035 0-0.053 0-17.695 14.345-32.040 32.040-32.040 0.020 0 0.037 0 0.057 0 0.016 0 0.037 0 0.060 0 17.695 0 32.040 14.345 32.040 32.040 0 0.020 0 0.037 0 0.057v223.673h159.822c0.019 0 0.041 0 0.063 0 17.695 0 32.040 14.345 32.040 32.040 0 0.022 0 0.044 0 0.067 0 17.771-14.499 31.928-32.274 31.928z" p-id="2021" fill="#FF5482"></path></svg>