<?xml version="1.0" standalone="no"?><!DOCTYPE svg PUBLIC "-//W3C//DTD SVG 1.1//EN" "http://www.w3.org/Graphics/SVG/1.1/DTD/svg11.dtd"><svg t="1522913648429" class="icon" style="" viewBox="0 0 1024 1024" version="1.1" xmlns="http://www.w3.org/2000/svg" p-id="4578" xmlns:xlink="http://www.w3.org/1999/xlink" width="200" height="200"><defs><style type="text/css"></style></defs><path d="M720.472544 349.479533c0.673335-1.971911 1.402953-3.971451 1.402953-6.203282 0-11.835559-10.591219-21.464871-23.672142-21.464871L591.655689 321.81138l-0.076748 0.025583c-0.051165 0-0.104377-0.025583-0.183172-0.025583-2.51631 0-4.929266 0.544399-7.187703 1.375324-9.370415 2.907213-16.195867 10.642384-16.195867 20.089547 0 0.49221 0.257873 0.830925 0.257873 1.297552-0.102331 0.986467-0.257873 1.920746-0.257873 2.958378l0 379.62511c0 14.170744 10.483772 25.693172 23.384593 25.693172 12.874215 0 23.335475-11.523451 23.335475-25.693172L614.732268 364.819916l54.42761 0-31.066553 122.976846c-1.091868 3.996011-1.040702 7.889691-0.390903 11.626805-0.649799 3.686972-0.701988 7.606235 0.390903 11.57564l31.535227 124.743072c-11.395538 1.556449-20.323884 10.145058-20.323884 20.891819 0 11.888771 10.589173 21.518083 23.619954 21.518083l24.527626 0c13.056364 0 23.644513-9.629311 23.644513-21.518083 0-0.387833-0.206708-0.750083-0.206708-1.168616 0.38988-3.373841 0.206708-6.955412-0.727571-10.538007L683.357228 499.423567l36.804231-145.55712C720.523709 352.361163 720.34463 350.959234 720.472544 349.479533z" p-id="4579" fill="#FF5482"></path><path d="M540.029892 397.521712c-0.128937-0.883113-0.337691-1.711991-0.544399-2.593058-0.517793-2.051729-1.115404-3.921309-2.206248-5.711072-3.996011-7.735172-11.471262-11.394515-20.218484-11.394515-2.829442 0-5.5279-1.013073-8.046257 0l-64.368006 0 0-80.123852c0-14.223956-10.461259-25.748431-23.38664-25.748431-12.875239 0-23.361057 11.524474-23.361057 25.748431l0 80.123852-64.368006 0c-2.518357-1.013073-5.192256 0-8.04728 0-8.720615 0-16.248056 3.660366-20.246113 11.394515-1.064238 1.790786-1.686409 3.659343-2.128477 5.711072-0.206708 0.881067-0.466628 1.709945-0.62217 2.593058-0.027629 0.649799-0.364297 1.168616-0.364297 1.816369 0 0.25992 0.157589 0.468674 0.157589 0.728594-0.078795 0.623193-0.157589 1.245364-0.157589 1.816369l0 272.03879c0 1.010003 0.157589 2.022053 0.25992 3.010567-0.025583 0.413416-0.25992 0.801249-0.25992 1.218758 0 9.44614 6.853082 17.284665 16.144702 20.141736 2.284019 0.830925 4.671393 1.373277 7.215332 1.373277 0.051165 0 0.102331 0 0.155543 0 0.053212 0 0.104377 0 0.104377 0l191.031824 0c0.052189 0 0.052189 0 0.103354 0 0.078795 0 0.132006 0 0.183172 0 2.569522 0 4.904707-0.541329 7.240915-1.373277 9.318226-2.857071 16.144702-10.694573 16.144702-20.141736 0-0.417509-0.25992-0.805342-0.284479-1.218758 0.127913-0.989537 0.284479-2.000564 0.284479-3.010567L540.446377 401.884067c0-0.571005-0.132006-1.194198-0.156566-1.816369 0.024559-0.25992 0.156566-0.468674 0.156566-0.728594C540.447401 398.690328 540.136316 398.172535 540.029892 397.521712zM397.898801 656.686287l-49.003064 0 0-94.086865 49.003064 0L397.898801 656.686287zM397.898801 519.592932l-49.003064 0 0-98.761328 49.003064 0L397.898801 519.592932zM493.675144 656.686287l-49.028647 0 0-94.086865 49.028647 0L493.675144 656.686287zM493.675144 519.592932l-49.028647 0 0-98.761328 49.028647 0L493.675144 519.592932z" p-id="4580" fill="#FF5482"></path><path d="M511.999488 81.4388c-237.414201 0-430.574502 193.159278-430.574502 430.54892 0 237.438761 193.159278 430.599062 430.574502 430.599062 237.414201 0 430.574502-193.160301 430.574502-430.599062C942.572968 274.598079 749.41369 81.4388 511.999488 81.4388zM511.999488 886.627283c-206.579939 0-374.639562-168.037111-374.639562-374.639562 0-206.553333 168.059624-374.640586 374.639562-374.640586s374.638539 168.087253 374.638539 374.640586C886.638027 718.590172 718.579427 886.627283 511.999488 886.627283z" p-id="4581" fill="#FF5482"></path></svg>