<?xml version="1.0" standalone="no"?><!DOCTYPE svg PUBLIC "-//W3C//DTD SVG 1.1//EN" "http://www.w3.org/Graphics/SVG/1.1/DTD/svg11.dtd"><svg t="1522913398470" class="icon" style="" viewBox="0 0 1024 1024" version="1.1" xmlns="http://www.w3.org/2000/svg" p-id="2625" xmlns:xlink="http://www.w3.org/1999/xlink" width="200" height="200"><defs><style type="text/css"></style></defs><path d="M299.406091 906.000516c-11.270694-6.021134-15.438621-20.070104-9.417487-31.340799s20.070104-15.438621 31.340799-9.417487c28.870538 15.59314 59.748802 27.789926 92.170213 35.972283 31.495318 7.874341 64.380286 12.042267 98.500385 12.042267 110.850667 0 211.20426-44.927235 283.766902-117.489878s117.489878-172.915211 117.489878-283.766902-44.927235-211.20426-117.489878-283.766902S622.850667 110.74322 512 110.74322s-211.20426 44.927235-283.766902 117.489878S110.74322 401.148309 110.74322 512c0 48.787146 8.645914 95.412047 24.548092 138.487098 16.519232 44.927235 40.603767 85.99456 70.864978 121.504308 8.336876 9.726525 7.101745 24.393573-2.62478 32.57593-9.726525 8.336876-24.239054 7.101745-32.42141-2.62478-33.965579-39.832194-61.138452-85.685521-79.355349-135.553279-17.754363-48.169069-27.480888-100.19805-27.480888-154.389276 0-123.665531 50.176796-235.597833 131.076314-316.65187 81.054037-80.899518 192.986339-131.076314 316.65187-131.076314s235.597833 50.176796 316.65187 131.076314c80.899518 81.054037 131.076314 192.986339 131.076314 316.65187s-50.176796 235.597833-131.076314 316.65187c-81.054037 80.899518-192.986339 131.076314-316.65187 131.076314-37.82549 0-74.569346-4.786003-109.770056-13.586436C365.9476 937.032276 331.519486 923.44584 299.406091 906.000516z" p-id="2626" fill="#FF5482"></path><path d="M311.053362 302.410518l412.145781 0c12.301164 1.37737 19.126616 8.201799 20.503986 20.50501-1.37737 13.680581-8.202822 21.210068-20.503986 22.555715L550.95829 345.471242l0 135.332245 168.140465 0c10.924817 0 17.076934 6.856152 18.453281 20.50501-1.37737 13.680581-7.528464 20.50501-18.453281 20.50501L550.95829 521.813506l0 170.190147 192.744839 0c10.924817 0 17.076934 6.151094 18.455327 18.453281-1.379417 12.30321-7.53051 18.454304-18.455327 18.454304L292.599058 728.911238c-13.680581 0-20.50501-6.151094-20.50501-18.454304 0-12.302187 6.824429-18.453281 20.50501-18.453281l51.262524 0L343.861582 427.490258c1.345648-12.30321 8.874111-19.126616 22.555715-20.50501 12.302187 1.378393 19.126616 8.201799 20.50501 20.50501l0 264.512373 120.978329 0L507.900635 345.470219 311.053362 345.470219c-12.302187-1.345648-19.159362-8.874111-20.50501-22.555715C291.895023 310.612317 298.751175 303.787888 311.053362 302.410518z" p-id="2627" fill="#FF5482"></path></svg>