<?xml version="1.0" standalone="no"?><!DOCTYPE svg PUBLIC "-//W3C//DTD SVG 1.1//EN" "http://www.w3.org/Graphics/SVG/1.1/DTD/svg11.dtd"><svg t="1523365897863" class="icon" style="" viewBox="0 0 1024 1024" version="1.1" xmlns="http://www.w3.org/2000/svg" p-id="1442" xmlns:xlink="http://www.w3.org/1999/xlink" width="200" height="200"><defs><style type="text/css"></style></defs><path d="M512.000512 81.257675c-237.508345 0-430.737208 193.240119-430.737208 430.748465 0 237.507322 193.228863 430.736185 430.737208 430.736185 237.507322 0 430.759721-193.228863 430.759721-430.736185C942.760233 274.497794 749.50681 81.257675 512.000512 81.257675zM512.000512 887.343597c-206.956515 0-375.314944-168.381965-375.314944-375.337457 0-206.955492 168.357406-375.326201 375.314944-375.326201 206.953446 0 375.337457 168.370709 375.337457 375.326201C887.337969 718.961632 718.953957 887.343597 512.000512 887.343597z" p-id="1443" fill="#FF4965"></path><path d="M710.961936 450.64563 546.673196 410.041864l35.687804-110.497627 0.98749-5.977132c0.367367-9.290597-2.933819-18.027585-9.318226-24.632004-6.062066-6.271844-14.907525-9.907651-24.27487-9.907651-10.620895 0-20.626783 4.64581-26.345018 12.063757L311.262628 468.38976l-3.696182 4.559852c-6.357801 10.301623-6.754844 23.364127-0.938372 34.060747 5.520737 9.979282 15.625886 16.511046 26.717502 17.374716l163.964352 27.182083L426.751942 752.798275l-0.86367 3.226484c-1.850138 9.982352 0.714268 20.10899 7.04751 27.700899 6.459109 7.740288 16.291035 12.347213 26.346041 12.347213l0.025583 0c11.165294 0 21.268396-5.347798 27.380604-14.3181l246.575862-277.136901 2.686179-3.770883c5.91471-10.399861 5.91471-22.821775 0.099261-33.295314C730.67593 458.039018 721.360773 451.804013 710.961936 450.64563zM494.524488 701.978842l53.136198-151.618163 0.911766-3.304256c1.799996-9.782807-0.762363-19.838837-7.097652-27.602661-5.891174-7.170307-14.19428-11.510148-23.191188-12.248975l-152.431691-25.236777L520.303618 338.38587l-23.931039 74.083276-1.00898 5.91471c-0.344854 9.081843 2.833535 17.744129 9.021467 24.323988 5.443989 5.866614 12.764722 9.587356 20.307512 10.474562l156.793022 38.741349L494.524488 701.978842z" p-id="1444" fill="#FF4965"></path><path d="M511.998465 80.447217c-237.950414 0-431.56404 193.601346-431.56404 431.53948 0 237.975996 193.613626 431.565063 431.56404 431.565063 237.951437 0 431.56404-193.59009 431.56404-431.565063C943.562505 274.049586 749.949902 80.447217 511.998465 80.447217zM511.998465 888.027166c-207.340255 0-376.013863-168.672584-376.013863-376.040469 0-207.327976 168.673607-376.013863 376.013863-376.013863 207.341279 0 376.013863 168.684864 376.013863 376.013863C888.012328 719.354582 719.339744 888.027166 511.998465 888.027166z" p-id="1445" fill="#FF4965"></path></svg>